ffmpeg started on 2025-06-06 at 19:28:06
Report written to "D:\Convert\FFMetrics\reports\psnr_report-6.txt"
Log level: 32
Command line:
ffmpeg -hide_banner -nostdin -i "G:\\\xc0\xed\xe8\xec\xe5\\\xce\xed\xe3\xee\xe8\xed\xe3\xe8\\!_36_\xce\xf1\xe5\xed\xfc_2024\\DreamCast\\\xd0\xee\xed \xca\xe0\xec\xee\xed\xee\xf5\xe0\xf1\xe8 - \xcd\xe5\xe2\xec\xe5\xed\xff\xe5\xec\xfb\xe9 \xe4\xe5\xf2\xe5\xea\xf2\xe8\xe2\\\xd2\xc2-1\\[DC] Kamonohashi Ron no Kindan Suiri - 10_Telegram_HEVC.mkv" -i "G:\\\xc0\xed\xe8\xec\xe5\\\xce\xed\xe3\xee\xe8\xed\xe3\xe8\\!_36_\xce\xf1\xe5\xed\xfc_2024\\DreamCast\\\xd0\xee\xed \xca\xe0\xec\xee\xed\xee\xf5\xe0\xf1\xe8 - \xcd\xe5\xe2\xec\xe5\xed\xff\xe5\xec\xfb\xe9 \xe4\xe5\xf2\xe5\xea\xf2\xe8\xe2\\\xd2\xc2-1\\[DC] Kamonohashi Ron no Kindan Suiri - 10_Telegram.mp4" -lavfi "[0:v]settb=AVTB,setpts=PTS-STARTPTS,format=pix_fmts=yuv420p10,fps=24000/1001,scale=1920:1080:flags=bicubic[main];[1:v]settb=AVTB,setpts=PTS-STARTPTS,format=pix_fmts=yuv420p,fps=24000/1001,scale=1920:1080:flags=bicubic[ref];[main][ref]psnr=eof_action=endall:stats_file='D\\:/Convert/FFMetrics/logs/psnr_logfile-6.txt'" -f null -
Input #0, matroska,webm, from 'G:\Аниме\Онгоинги\!_36_Осень_2024\DreamCast\Рон Камонохаси - Невменяемый детектив\ТВ-1\[DC] Kamonohashi Ron no Kindan Suiri - 10_Telegram_HEVC.mkv':
  Metadata:
    COMPATIBLE_BRANDS: isomiso2avc1mp41
    MAJOR_BRAND     : isom
    MINOR_VERSION   : 512
    ENCODER         : Lavf61.7.100
  Duration: 00:23:44.09, start: -0.021000, bitrate: 685 kb/s
  Stream #0:0: Video: hevc (Main 10), yuv420p10le(tv, bt709, progressive), 1920x1080 [SAR 1:1 DAR 16:9], 23.98 fps, 23.98 tbr, 1k tbn (default)
      Metadata:
        HANDLER_NAME    : VideoHandler
        VENDOR_ID       : [0][0][0][0]
        ENCODER         : Lavc61.19.100 libx265
        BPS             : 486761
        DURATION        : 00:23:43.922708333
        NUMBER_OF_FRAMES: 34140
        NUMBER_OF_BYTES : 86638885
        _STATISTICS_WRITING_APP: mkvpropedit v66.0.0 ('Josie') 64-bit
        _STATISTICS_WRITING_DATE_UTC: 2025-06-03 15:41:52
        _STATISTICS_TAGS: BPS DURATION NUMBER_OF_FRAMES NUMBER_OF_BYTES
  Stream #0:1: Audio: aac (LC), 48000 Hz, stereo, fltp (default)
      Metadata:
        HANDLER_NAME    : SoundHandler
        VENDOR_ID       : [0][0][0][0]
        ENCODER         : Lavc61.19.100 aac
        BPS             : 194329
        DURATION        : 00:23:44.085000000
        NUMBER_OF_FRAMES: 66755
        NUMBER_OF_BYTES : 34592790
        _STATISTICS_WRITING_APP: mkvpropedit v66.0.0 ('Josie') 64-bit
        _STATISTICS_WRITING_DATE_UTC: 2025-06-03 15:41:52
        _STATISTICS_TAGS: BPS DURATION NUMBER_OF_FRAMES NUMBER_OF_BYTES
Input #1, mov,mp4,m4a,3gp,3g2,mj2, from 'G:\Аниме\Онгоинги\!_36_Осень_2024\DreamCast\Рон Камонохаси - Невменяемый детектив\ТВ-1\[DC] Kamonohashi Ron no Kindan Suiri - 10_Telegram.mp4':
  Metadata:
    major_brand     : isom
    minor_version   : 512
    compatible_brands: isomiso2avc1mp41
    encoder         : Lavf60.18.100
  Duration: 00:23:44.03, start: 0.000000, bitrate: 3173 kb/s
  Stream #1:0[0x1](und): Video: h264 (High) (avc1 / 0x31637661), yuv420p(tv, bt709, progressive), 1920x1080 [SAR 1:1 DAR 16:9], 3025 kb/s, 23.98 fps, 23.98 tbr, 24k tbn (default)
      Metadata:
        handler_name    : VideoHandler
        vendor_id       : [0][0][0][0]
        encoder         : Lavc60.35.100 h264_qsv
  Stream #1:1[0x2](und): Audio: aac (HE-AACv2) (mp4a / 0x6134706D), 48000 Hz, stereo, fltp, 144 kb/s (default)
      Metadata:
        handler_name    : SoundHandler
        vendor_id       : [0][0][0][0]
Stream mapping:
  Stream #0:0 (hevc) -> settb:default
  Stream #1:0 (h264) -> settb:default
  psnr:default -> Stream #0:0 (wrapped_avframe)
  Stream #0:1 -> #0:1 (aac (native) -> pcm_s16le (native))
Output #0, null, to 'pipe:':
  Metadata:
    COMPATIBLE_BRANDS: isomiso2avc1mp41
    MAJOR_BRAND     : isom
    MINOR_VERSION   : 512
    encoder         : Lavf61.7.100
  Stream #0:0: Video: wrapped_avframe, yuv420p10le(tv, bt709, progressive), 1920x1080 [SAR 1:1 DAR 16:9], q=2-31, 200 kb/s, 23.98 fps, 23.98 tbn
      Metadata:
        encoder         : Lavc61.19.100 wrapped_avframe
  Stream #0:1: Audio: pcm_s16le, 48000 Hz, stereo, s16, 1536 kb/s (default)
      Metadata:
        HANDLER_NAME    : SoundHandler
        VENDOR_ID       : [0][0][0][0]
        _STATISTICS_TAGS: BPS DURATION NUMBER_OF_FRAMES NUMBER_OF_BYTES
        BPS             : 194329
        DURATION        : 00:23:44.085000000
        NUMBER_OF_FRAMES: 66755
        NUMBER_OF_BYTES : 34592790
        _STATISTICS_WRITING_APP: mkvpropedit v66.0.0 ('Josie') 64-bit
        _STATISTICS_WRITING_DATE_UTC: 2025-06-03 15:41:52
        encoder         : Lavc61.19.100 pcm_s16le
frame=  163 fps=0.0 q=-0.0 size=N/A time=00:00:06.79 bitrate=N/A speed=13.4x    frame=  393 fps=386 q=-0.0 size=N/A time=00:00:16.39 bitrate=N/A speed=16.1x    frame=  619 fps=401 q=-0.0 size=N/A time=00:00:25.81 bitrate=N/A speed=16.7x    frame=  866 fps=421 q=-0.0 size=N/A time=00:00:36.11 bitrate=N/A speed=17.6x    frame= 1101 fps=429 q=-0.0 size=N/A time=00:00:45.92 bitrate=N/A speed=17.9x    frame= 1369 fps=443 q=-0.0 size=N/A time=00:00:57.09 bitrate=N/A speed=18.5x    frame= 1654 fps=459 q=-0.0 size=N/A time=00:01:08.98 bitrate=N/A speed=19.1x    frame= 1942 fps=471 q=-0.0 size=N/A time=00:01:20.99 bitrate=N/A speed=19.6x    frame= 2212 fps=477 q=-0.0 size=N/A time=00:01:32.25 bitrate=N/A speed=19.9x    frame= 2494 fps=484 q=-0.0 size=N/A time=00:01:44.02 bitrate=N/A speed=20.2x    frame= 2731 fps=482 q=-0.0 size=N/A time=00:01:53.90 bitrate=N/A speed=20.1x    frame= 2988 fps=483 q=-0.0 size=N/A time=00:02:04.62 bitrate=N/A speed=20.1x    frame= 3209 fps=479 q=-0.0 size=N/A time=00:02:13.84 bitrate=N/A speed=  20x    frame= 3449 fps=478 q=-0.0 size=N/A time=00:02:23.85 bitrate=N/A speed=19.9x    frame= 3670 fps=474 q=-0.0 size=N/A time=00:02:33.06 bitrate=N/A speed=19.8x    frame= 3891 fps=472 q=-0.0 size=N/A time=00:02:42.28 bitrate=N/A speed=19.7x    frame= 4093 fps=467 q=-0.0 size=N/A time=00:02:50.71 bitrate=N/A speed=19.5x    frame= 4313 fps=465 q=-0.0 size=N/A time=00:02:59.88 bitrate=N/A speed=19.4x    frame= 4577 fps=468 q=-0.0 size=N/A time=00:03:10.89 bitrate=N/A speed=19.5x    frame= 4818 fps=467 q=-0.0 size=N/A time=00:03:20.95 bitrate=N/A speed=19.5x    frame= 5072 fps=469 q=-0.0 size=N/A time=00:03:31.54 bitrate=N/A speed=19.5x    frame= 5333 fps=471 q=-0.0 size=N/A time=00:03:42.43 bitrate=N/A speed=19.6x    frame= 5599 fps=472 q=-0.0 size=N/A time=00:03:53.52 bitrate=N/A speed=19.7x    frame= 5887 fps=476 q=-0.0 size=N/A time=00:04:05.53 bitrate=N/A speed=19.8x    frame= 6165 fps=478 q=-0.0 size=N/A time=00:04:17.13 bitrate=N/A speed=19.9x    frame= 6426 fps=479 q=-0.0 size=N/A time=00:04:28.01 bitrate=N/A speed=  20x    frame= 6689 fps=481 q=-0.0 size=N/A time=00:04:38.98 bitrate=N/A speed=20.1x    frame= 6956 fps=482 q=-0.0 size=N/A time=00:04:50.12 bitrate=N/A speed=20.1x    frame= 7204 fps=482 q=-0.0 size=N/A time=00:05:00.46 bitrate=N/A speed=20.1x    frame= 7474 fps=483 q=-0.0 size=N/A time=00:05:11.72 bitrate=N/A speed=20.2x    frame= 7751 fps=485 q=-0.0 size=N/A time=00:05:23.28 bitrate=N/A speed=20.2x    frame= 8028 fps=487 q=-0.0 size=N/A time=00:05:34.83 bitrate=N/A speed=20.3x    frame= 8254 fps=485 q=-0.0 size=N/A time=00:05:44.26 bitrate=N/A speed=20.2x    frame= 8445 fps=482 q=-0.0 size=N/A time=00:05:52.22 bitrate=N/A speed=20.1x    frame= 8658 fps=480 q=-0.0 size=N/A time=00:06:01.11 bitrate=N/A speed=  20x    frame= 8938 fps=482 q=-0.0 size=N/A time=00:06:12.78 bitrate=N/A speed=20.1x    frame= 9214 fps=483 q=-0.0 size=N/A time=00:06:24.30 bitrate=N/A speed=20.1x    frame= 9490 fps=484 q=-0.0 size=N/A time=00:06:35.81 bitrate=N/A speed=20.2x    frame= 9772 fps=486 q=-0.0 size=N/A time=00:06:47.57 bitrate=N/A speed=20.3x    frame=10050 fps=488 q=-0.0 size=N/A time=00:06:59.16 bitrate=N/A speed=20.3x    frame=10328 fps=489 q=-0.0 size=N/A time=00:07:10.76 bitrate=N/A speed=20.4x    frame=10594 fps=489 q=-0.0 size=N/A time=00:07:21.85 bitrate=N/A speed=20.4x    frame=10870 fps=490 q=-0.0 size=N/A time=00:07:33.36 bitrate=N/A speed=20.5x    frame=11140 fps=491 q=-0.0 size=N/A time=00:07:44.63 bitrate=N/A speed=20.5x    frame=11415 fps=492 q=-0.0 size=N/A time=00:07:56.10 bitrate=N/A speed=20.5x    frame=11690 fps=493 q=-0.0 size=N/A time=00:08:07.57 bitrate=N/A speed=20.6x    frame=11963 fps=494 q=-0.0 size=N/A time=00:08:18.95 bitrate=N/A speed=20.6x    frame=12216 fps=494 q=-0.0 size=N/A time=00:08:29.50 bitrate=N/A speed=20.6x    frame=12467 fps=493 q=-0.0 size=N/A time=00:08:39.97 bitrate=N/A speed=20.6x    frame=12745 fps=495 q=-0.0 size=N/A time=00:08:51.57 bitrate=N/A speed=20.6x    frame=12995 fps=494 q=-0.0 size=N/A time=00:09:01.99 bitrate=N/A speed=20.6x    frame=13268 fps=495 q=-0.0 size=N/A time=00:09:13.38 bitrate=N/A speed=20.6x    frame=13543 fps=496 q=-0.0 size=N/A time=00:09:24.85 bitrate=N/A speed=20.7x    frame=13807 fps=496 q=-0.0 size=N/A time=00:09:35.86 bitrate=N/A speed=20.7x    frame=14086 fps=497 q=-0.0 size=N/A time=00:09:47.50 bitrate=N/A speed=20.7x    frame=14359 fps=497 q=-0.0 size=N/A time=00:09:58.88 bitrate=N/A speed=20.7x    frame=14637 fps=498 q=-0.0 size=N/A time=00:10:10.48 bitrate=N/A speed=20.8x    frame=14894 fps=498 q=-0.0 size=N/A time=00:10:21.20 bitrate=N/A speed=20.8x    frame=15170 fps=499 q=-0.0 size=N/A time=00:10:32.71 bitrate=N/A speed=20.8x    frame=15434 fps=499 q=-0.0 size=N/A time=00:10:43.72 bitrate=N/A speed=20.8x    frame=15714 fps=500 q=-0.0 size=N/A time=00:10:55.40 bitrate=N/A speed=20.8x    frame=15989 fps=500 q=-0.0 size=N/A time=00:11:06.87 bitrate=N/A speed=20.9x    frame=16269 fps=501 q=-0.0 size=N/A time=00:11:18.55 bitrate=N/A speed=20.9x    frame=16546 fps=502 q=-0.0 size=N/A time=00:11:30.10 bitrate=N/A speed=20.9x    frame=16822 fps=502 q=-0.0 size=N/A time=00:11:41.61 bitrate=N/A speed=20.9x    frame=17078 fps=502 q=-0.0 size=N/A time=00:11:52.29 bitrate=N/A speed=20.9x    frame=17350 fps=502 q=-0.0 size=N/A time=00:12:03.63 bitrate=N/A speed=20.9x    frame=17628 fps=503 q=-0.0 size=N/A time=00:12:15.23 bitrate=N/A speed=  21x    frame=17892 fps=503 q=-0.0 size=N/A time=00:12:26.24 bitrate=N/A speed=  21x    frame=18171 fps=503 q=-0.0 size=N/A time=00:12:37.88 bitrate=N/A speed=  21x    frame=18440 fps=504 q=-0.0 size=N/A time=00:12:49.10 bitrate=N/A speed=  21x    frame=18700 fps=504 q=-0.0 size=N/A time=00:12:59.94 bitrate=N/A speed=  21x    frame=18986 fps=504 q=-0.0 size=N/A time=00:13:11.87 bitrate=N/A speed=  21x    frame=19247 fps=504 q=-0.0 size=N/A time=00:13:22.76 bitrate=N/A speed=  21x    frame=19520 fps=505 q=-0.0 size=N/A time=00:13:34.14 bitrate=N/A speed=21.1x    frame=19799 fps=505 q=-0.0 size=N/A time=00:13:45.78 bitrate=N/A speed=21.1x    frame=20068 fps=505 q=-0.0 size=N/A time=00:13:57.00 bitrate=N/A speed=21.1x    frame=20345 fps=506 q=-0.0 size=N/A time=00:14:08.55 bitrate=N/A speed=21.1x    frame=20620 fps=506 q=-0.0 size=N/A time=00:14:20.02 bitrate=N/A speed=21.1x    frame=20895 fps=507 q=-0.0 size=N/A time=00:14:31.49 bitrate=N/A speed=21.1x    frame=21160 fps=507 q=-0.0 size=N/A time=00:14:42.54 bitrate=N/A speed=21.1x    frame=21431 fps=507 q=-0.0 size=N/A time=00:14:53.85 bitrate=N/A speed=21.1x    frame=21701 fps=507 q=-0.0 size=N/A time=00:15:05.11 bitrate=N/A speed=21.1x    frame=21969 fps=507 q=-0.0 size=N/A time=00:15:16.29 bitrate=N/A speed=21.2x    frame=22242 fps=508 q=-0.0 size=N/A time=00:15:27.67 bitrate=N/A speed=21.2x    frame=22500 fps=507 q=-0.0 size=N/A time=00:15:38.43 bitrate=N/A speed=21.2x    frame=22772 fps=508 q=-0.0 size=N/A time=00:15:49.78 bitrate=N/A speed=21.2x    frame=23014 fps=507 q=-0.0 size=N/A time=00:15:59.87 bitrate=N/A speed=21.2x    frame=23268 fps=507 q=-0.0 size=N/A time=00:16:10.46 bitrate=N/A speed=21.1x    frame=23522 fps=507 q=-0.0 size=N/A time=00:16:21.06 bitrate=N/A speed=21.1x    frame=23776 fps=507 q=-0.0 size=N/A time=00:16:31.65 bitrate=N/A speed=21.1x    frame=24053 fps=507 q=-0.0 size=N/A time=00:16:43.21 bitrate=N/A speed=21.1x    frame=24316 fps=507 q=-0.0 size=N/A time=00:16:54.17 bitrate=N/A speed=21.2x    frame=24548 fps=507 q=-0.0 size=N/A time=00:17:03.85 bitrate=N/A speed=21.1x    frame=24826 fps=507 q=-0.0 size=N/A time=00:17:15.45 bitrate=N/A speed=21.1x    frame=25075 fps=507 q=-0.0 size=N/A time=00:17:25.83 bitrate=N/A speed=21.1x    frame=25345 fps=507 q=-0.0 size=N/A time=00:17:37.09 bitrate=N/A speed=21.1x    frame=25630 fps=507 q=-0.0 size=N/A time=00:17:48.98 bitrate=N/A speed=21.2x    frame=25917 fps=508 q=-0.0 size=N/A time=00:18:00.95 bitrate=N/A speed=21.2x    frame=26200 fps=508 q=-0.0 size=N/A time=00:18:12.75 bitrate=N/A speed=21.2x    frame=26483 fps=509 q=-0.0 size=N/A time=00:18:24.56 bitrate=N/A speed=21.2x    frame=26748 fps=509 q=-0.0 size=N/A time=00:18:35.61 bitrate=N/A speed=21.2x    frame=27030 fps=509 q=-0.0 size=N/A time=00:18:47.37 bitrate=N/A speed=21.2x    frame=27284 fps=509 q=-0.0 size=N/A time=00:18:57.97 bitrate=N/A speed=21.2x    frame=27551 fps=509 q=-0.0 size=N/A time=00:19:09.10 bitrate=N/A speed=21.2x    frame=27816 fps=509 q=-0.0 size=N/A time=00:19:20.15 bitrate=N/A speed=21.2x    frame=28092 fps=509 q=-0.0 size=N/A time=00:19:31.67 bitrate=N/A speed=21.2x    frame=28371 fps=509 q=-0.0 size=N/A time=00:19:43.30 bitrate=N/A speed=21.2x    frame=28631 fps=509 q=-0.0 size=N/A time=00:19:54.15 bitrate=N/A speed=21.2x    frame=28892 fps=509 q=-0.0 size=N/A time=00:20:05.03 bitrate=N/A speed=21.2x    frame=29163 fps=510 q=-0.0 size=N/A time=00:20:16.34 bitrate=N/A speed=21.3x    frame=29430 fps=510 q=-0.0 size=N/A time=00:20:27.47 bitrate=N/A speed=21.3x    frame=29656 fps=509 q=-0.0 size=N/A time=00:20:36.90 bitrate=N/A speed=21.2x    frame=29935 fps=509 q=-0.0 size=N/A time=00:20:48.53 bitrate=N/A speed=21.2x    frame=30207 fps=509 q=-0.0 size=N/A time=00:20:59.88 bitrate=N/A speed=21.2x    frame=30479 fps=510 q=-0.0 size=N/A time=00:21:11.22 bitrate=N/A speed=21.3x    frame=30764 fps=510 q=-0.0 size=N/A time=00:21:23.11 bitrate=N/A speed=21.3x    frame=31024 fps=510 q=-0.0 size=N/A time=00:21:33.95 bitrate=N/A speed=21.3x    frame=31302 fps=510 q=-0.0 size=N/A time=00:21:45.55 bitrate=N/A speed=21.3x    frame=31583 fps=510 q=-0.0 size=N/A time=00:21:57.27 bitrate=N/A speed=21.3x    frame=31844 fps=510 q=-0.0 size=N/A time=00:22:08.16 bitrate=N/A speed=21.3x    frame=32109 fps=510 q=-0.0 size=N/A time=00:22:19.21 bitrate=N/A speed=21.3x    frame=32381 fps=511 q=-0.0 size=N/A time=00:22:30.55 bitrate=N/A speed=21.3x    frame=32643 fps=511 q=-0.0 size=N/A time=00:22:41.48 bitrate=N/A speed=21.3x    frame=32916 fps=511 q=-0.0 size=N/A time=00:22:52.87 bitrate=N/A speed=21.3x    frame=33195 fps=511 q=-0.0 size=N/A time=00:23:04.50 bitrate=N/A speed=21.3x    frame=33472 fps=511 q=-0.0 size=N/A time=00:23:16.06 bitrate=N/A speed=21.3x    frame=33735 fps=511 q=-0.0 size=N/A time=00:23:27.03 bitrate=N/A speed=21.3x    frame=33987 fps=511 q=-0.0 size=N/A time=00:23:37.54 bitrate=N/A speed=21.3x    [Parsed_psnr_10 @ 000001be2fb793c0] PSNR y:49.624922 u:50.395262 v:51.112631 average:49.965527 min:43.042026 max:inf
[out#0/null @ 000001be30215580] video:14670KiB audio:267020KiB subtitle:0KiB other streams:0KiB global headers:0KiB muxing overhead: unknown
frame=34140 fps=511 q=-0.0 Lsize=N/A time=00:23:43.92 bitrate=N/A speed=21.3x    
